<mxfile host="app.diagrams.net" modified="2022-06-27T05:53:22.201Z" agent="5.0 (Macintosh; Intel Mac OS X 10_15_7) AppleWebKit/537.36 (KHTML, like Gecko) Chrome/102.0.0.0 Safari/537.36" etag="RLyqE24nq8VI28srOX5w" version="20.0.2" type="github">
  <diagram id="vkbTgsreRMK52pK9glj-" name="Page-1">
    <mxGraphModel dx="1426" dy="712" grid="1" gridSize="10" guides="1" tooltips="1" connect="1" arrows="1" fold="1" page="1" pageScale="1" pageWidth="850" pageHeight="1100" math="0" shadow="0">
      <root>
        <mxCell id="0" />
        <mxCell id="1" parent="0" />
        <mxCell id="jDrjRsRQ9WrzELE9PbFE-3" value="" style="rounded=0;whiteSpace=wrap;html=1;" vertex="1" parent="1">
          <mxGeometry x="260" y="250" width="380" height="310" as="geometry" />
        </mxCell>
        <mxCell id="jDrjRsRQ9WrzELE9PbFE-4" value="PageOptimizingRule" style="text;html=1;strokeColor=none;fillColor=none;align=center;verticalAlign=middle;whiteSpace=wrap;rounded=0;" vertex="1" parent="1">
          <mxGeometry x="425" y="270" width="60" height="30" as="geometry" />
        </mxCell>
        <mxCell id="jDrjRsRQ9WrzELE9PbFE-5" value="OptimizingRuleForm" style="rounded=0;whiteSpace=wrap;html=1;" vertex="1" parent="1">
          <mxGeometry x="340" y="320" width="230" height="60" as="geometry" />
        </mxCell>
        <mxCell id="jDrjRsRQ9WrzELE9PbFE-6" value="OptimizingOutcome" style="rounded=0;whiteSpace=wrap;html=1;" vertex="1" parent="1">
          <mxGeometry x="340" y="390" width="230" height="60" as="geometry" />
        </mxCell>
        <mxCell id="jDrjRsRQ9WrzELE9PbFE-7" value="OptimizingOutcome" style="rounded=0;whiteSpace=wrap;html=1;" vertex="1" parent="1">
          <mxGeometry x="340" y="460" width="230" height="60" as="geometry" />
        </mxCell>
      </root>
    </mxGraphModel>
  </diagram>
</mxfile>
